<svg xmlns="http://www.w3.org/2000/svg" viewBox="0 0 400 300" width="406" height="306" class="illustration styles_illustrationTablet__1DWOa"><g id="_534_content_creation_flatline" data-name="#534_content_creation_flatline"><path d="M64.47,233.34H341.35a0,0,0,0,1,0,0v9.76a3.59,3.59,0,0,1-3.59,3.59H68.07a3.59,3.59,0,0,1-3.59-3.59v-9.76A0,0,0,0,1,64.47,233.34Z" fill="#e6e7e8"></path><path d="M337.76,247.19H68.07A4.1,4.1,0,0,1,64,243.1v-9.76a.51.51,0,0,1,.5-.5H341.35a.5.5,0,0,1,.5.5v9.76A4.09,4.09,0,0,1,337.76,247.19ZM65,233.84v9.26a3.1,3.1,0,0,0,3.1,3.09H337.76a3.1,3.1,0,0,0,3.09-3.09v-9.26Z" fill="#231f20"></path><rect x="100.62" y="59.67" width="210.58" height="133.65" rx="8.05" fill="#231f20"></rect><path d="M303.15,193.82H108.67a8.57,8.57,0,0,1-8.55-8.55V67.71a8.56,8.56,0,0,1,8.55-8.54H303.15a8.56,8.56,0,0,1,8.55,8.54V185.27A8.57,8.57,0,0,1,303.15,193.82ZM108.67,60.17a7.55,7.55,0,0,0-7.55,7.54V185.27a7.56,7.56,0,0,0,7.55,7.55H303.15a7.56,7.56,0,0,0,7.55-7.55V67.71a7.55,7.55,0,0,0-7.55-7.54Z" fill="#231f20"></path><path d="M309.47,193.32H102.36a4,4,0,0,0-2.91,1.27L65.53,231.37A4,4,0,0,0,68.44,238h269a4,4,0,0,0,2.9-6.64l-27.92-36.78A3.94,3.94,0,0,0,309.47,193.32Z" fill="#fff"></path><path d="M337.39,238.51H68.44A4.46,4.46,0,0,1,65.16,231l33.92-36.78a4.48,4.48,0,0,1,3.28-1.43H309.47a4.46,4.46,0,0,1,3.27,1.43l27.95,36.82a4.37,4.37,0,0,1,.78,4.77A4.41,4.41,0,0,1,337.39,238.51Zm-235-44.69a3.43,3.43,0,0,0-2.54,1.11L65.9,231.71a3.45,3.45,0,0,0,2.54,5.8h269a3.46,3.46,0,0,0,2.54-5.8L312,194.9a3.44,3.44,0,0,0-2.51-1.08Z" fill="#231f20"></path><polygon points="320.06 217.54 90.76 217.54 106.05 199.39 305.77 199.39 320.06 217.54" fill="#fff"></polygon><path d="M320.06,218H90.76a.49.49,0,0,1-.45-.29.51.51,0,0,1,.07-.53l15.29-18.15a.49.49,0,0,1,.38-.18H305.77a.49.49,0,0,1,.39.19l14.29,18.15a.51.51,0,0,1,.06.53A.5.5,0,0,1,320.06,218ZM91.84,217H319l-13.5-17.15H106.28Z" fill="#d1d3d4"></path><polygon points="239.64 232.82 172.18 232.82 180.95 220.06 230.88 220.06 239.64 232.82" fill="#fff"></polygon><path d="M239.64,233.32H172.18a.5.5,0,0,1-.41-.78l8.76-12.76a.51.51,0,0,1,.42-.22h49.93a.49.49,0,0,1,.41.22l8.76,12.76a.5.5,0,0,1-.41.78Zm-66.51-1h65.56l-8.08-11.76h-49.4Z" fill="#d1d3d4"></path><rect x="107.83" y="66.49" width="194.46" height="119.01" fill="#fff"></rect><rect x="114.97" y="82.26" width="135.15" height="78.46" fill="#fff"></rect><path d="M250.11,161.22H115a.5.5,0,0,1-.5-.5V82.26a.5.5,0,0,1,.5-.5H250.11a.5.5,0,0,1,.5.5v78.46A.5.5,0,0,1,250.11,161.22Zm-134.64-1H249.61V82.76H115.47Z" fill="#231f20"></path><rect x="256.45" y="83.2" width="22.44" height="18.4" fill="#e6e7e8"></rect><rect x="282.83" y="85.26" width="15.77" height="2.25" rx="1.13" fill="#e6e7e8"></rect><rect x="282.83" y="90.15" width="15.77" height="2.25" rx="1.13" fill="#e6e7e8"></rect><rect x="282.83" y="95.03" width="15.77" height="2.25" rx="1.13" fill="#e6e7e8"></rect><rect x="256.45" y="107.41" width="22.44" height="18.4" fill="#e6e7e8"></rect><rect x="282.83" y="109.48" width="15.77" height="2.25" rx="1.13" fill="#e6e7e8"></rect><rect x="282.83" y="114.36" width="15.77" height="2.25" rx="1.13" fill="#e6e7e8"></rect><rect x="282.83" y="119.24" width="15.77" height="2.25" rx="1.13" fill="#e6e7e8"></rect><rect x="256.45" y="131.63" width="22.44" height="18.4" fill="#e6e7e8"></rect><rect x="282.83" y="133.69" width="15.77" height="2.25" rx="1.13" fill="#e6e7e8"></rect><rect x="282.83" y="138.57" width="15.77" height="2.25" rx="1.13" fill="#e6e7e8"></rect><rect x="282.83" y="143.45" width="15.77" height="2.25" rx="1.13" fill="#e6e7e8"></rect><rect x="256.45" y="155.84" width="22.44" height="18.4" fill="#e6e7e8"></rect><rect x="282.83" y="157.91" width="15.77" height="2.25" rx="1.13" fill="#e6e7e8"></rect><rect x="282.83" y="162.79" width="15.77" height="2.25" rx="1.13" fill="#e6e7e8"></rect><rect x="282.83" y="167.67" width="15.77" height="2.25" rx="1.13" fill="#e6e7e8"></rect><circle cx="121.82" cy="172.78" r="6.1" fill="#e6e7e8"></circle><rect x="132.42" y="166.68" width="56.31" height="6.1" fill="#e6e7e8"></rect><rect x="132.42" y="174.57" width="39.84" height="4.32" fill="#e6e7e8"></rect><rect x="217.37" y="168.58" width="32.75" height="10.28" rx="5.14" fill="#e6e7e8"></rect><path d="M252,86s6-5.82,6.47-7.13,2.26-8.4,3.95-10.47,2.53-.42,1.4,4.79c0,0,5.31-9,7.1-9.07,2.16-.1,5.86,5.06,5.29,7.38-.32,1.32-1.45,9-7.22,13.61a37.65,37.65,0,0,0-8,9.62Z" fill="#fff"></path><path d="M261.05,95.15a.48.48,0,0,1-.32-.13l-9-8.73a.47.47,0,0,1-.14-.33.45.45,0,0,1,.14-.33c2.31-2.22,6.08-6.07,6.36-6.94.07-.22.18-.59.32-1.07.72-2.52,2.23-7.75,3.7-9.55.74-.89,1.4-1.21,1.95-.94.72.34.94,1.59.68,3.72,1.83-2.91,4.75-7.16,6.21-7.23s2.95,1.59,3.54,2.3c1.38,1.67,2.6,4.07,2.22,5.65,0,.11-.06.27-.11.48-.47,2.26-1.9,9.12-7.28,13.38a37.38,37.38,0,0,0-7.86,9.48.46.46,0,0,1-.34.23ZM252.7,86,261,94a36.9,36.9,0,0,1,7.79-9.25c5.13-4,6.51-10.67,7-12.84,0-.22.08-.4.11-.52.25-1-.62-3.13-2-4.85-1-1.24-2.1-2-2.8-2-1,0-4.23,4.63-6.72,8.85a.48.48,0,0,1-.56.2.47.47,0,0,1-.28-.53c.85-3.93.4-5,.24-5.1s-.35.09-.85.7c-1.35,1.65-2.88,7-3.54,9.22-.14.5-.25.88-.32,1.1C258.55,80.21,254.21,84.49,252.7,86Z" fill="#231f20"></path><path d="M212.38,85c2.88-4.75,3.61-10.51,3.34-16a39.16,39.16,0,0,0-4.66-17.33,15.53,15.53,0,0,0-5-5.72c-2.59-1.64-4.36-.53-6.9-1-2.14-.37-4.38-1.9-6.76-2.29a22,22,0,0,0-15.76,3.33c-8.13,5.5-11.89,16-20.29,21.11-8.23,5-18.77,3.48-28,6.24a31.31,31.31,0,0,0-10.69,5.64,18.86,18.86,0,0,0-5.23,6.25c-2.16,4.53-1.59,9.93,0,14.7s4.3,9.64,8.5,12.66c3.51,2.53,7.82,3.7,12.09,4.47a45,45,0,0,0,17.57.18,25.56,25.56,0,0,0,11.63-5.69c1.43-1.27,2.22-3,3.55-4.27,1.83-1.74,4.68-2.8,6.82-4.13,3.36-2.09,6.72-4.32,10.54-5.3C192.82,95.29,206.53,94.6,212.38,85Z" fill="#fff"></path><path d="M142.88,118.43a56.07,56.07,0,0,1-10-1c-3.7-.67-8.45-1.79-12.28-4.55S113.81,105.7,112,100c-1.32-4-2.38-9.94.06-15a18.72,18.72,0,0,1,5.36-6.41,31.68,31.68,0,0,1,10.84-5.73,64.86,64.86,0,0,1,11.4-1.95c6-.66,11.59-1.28,16.49-4.24,4.27-2.58,7.4-6.7,10.42-10.69,2.88-3.79,5.86-7.71,9.84-10.41a22.43,22.43,0,0,1,16.1-3.4,16.17,16.17,0,0,1,3.67,1.23,14.73,14.73,0,0,0,3.09,1.06,10.54,10.54,0,0,0,2.43.06,7,7,0,0,1,4.64,1,16,16,0,0,1,5.15,5.88,39.36,39.36,0,0,1,4.72,17.53c.31,6.59-.83,12.07-3.41,16.31h0C208,93.08,198.11,95.1,189.4,96.87c-2.19.45-4.25.87-6.18,1.37-3.44.88-6.56,2.83-9.57,4.72l-.84.52c-.76.47-1.62.92-2.45,1.35a18.64,18.64,0,0,0-4.31,2.73,13.63,13.63,0,0,0-1.6,2,13.64,13.64,0,0,1-1.95,2.32,26,26,0,0,1-11.84,5.8A36.24,36.24,0,0,1,142.88,118.43Zm45.88-75.66a21.25,21.25,0,0,0-11.86,3.55c-3.87,2.61-6.8,6.47-9.63,10.2-3.08,4.06-6.26,8.25-10.68,10.92-5.07,3.07-11.06,3.73-16.86,4.37a64.24,64.24,0,0,0-11.24,1.91A30.85,30.85,0,0,0,118,79.29a18.09,18.09,0,0,0-5.11,6.09c-2.3,4.82-1.28,10.47,0,14.36,1.78,5.49,4.66,9.79,8.32,12.43s8.3,3.74,11.91,4.39c6.72,1.21,12.41,1.27,17.4.19a25,25,0,0,0,11.42-5.59,13.43,13.43,0,0,0,1.82-2.17,15.4,15.4,0,0,1,1.71-2.1,19.44,19.44,0,0,1,4.52-2.87c.85-.44,1.66-.86,2.38-1.31l.84-.53c3.08-1.92,6.26-3.9,9.83-4.83,1.95-.5,4-.92,6.22-1.37,8.53-1.74,18.2-3.71,22.78-11.26h0c2.48-4.08,3.58-9.4,3.27-15.79a38.14,38.14,0,0,0-4.6-17.13,15,15,0,0,0-4.84-5.56,6,6,0,0,0-4.09-.82,10.79,10.79,0,0,1-2.64-.07,15.43,15.43,0,0,1-3.29-1.12,15.6,15.6,0,0,0-3.47-1.17A21.49,21.49,0,0,0,188.76,42.77Z" fill="#231f20"></path><path d="M252.84,82.86l-16.79,17.58s-39.49-19.11-48.7-21.52c-3.42-.9-14,4.75-26.21,12.56l0,28.1-1.81,40.67h43.06c.75-3.86,2.76-11.28,4.6-15,2.32-4.67,12.25-11.56,9.13-29.44,0,0,23.4,14.8,30,8s20.83-32.74,20.83-32.74Z" fill="#FF731D"></path><path d="M186.5,92.22s6.35,19.71,7.43,28.06,1.25,22.14,1.25,22.14,10-30.76,8.8-49.76Z" fill="#231f20"></path><path d="M195.19,142.86h-.07a.45.45,0,0,1-.38-.43c0-.14-.17-13.87-1.24-22.1s-7.36-27.78-7.42-28a.45.45,0,0,1,.07-.4.48.48,0,0,1,.36-.17l17.48.44a.45.45,0,0,1,.43.41c1.24,18.87-8.72,49.62-8.82,49.93A.44.44,0,0,1,195.19,142.86Zm-8.08-50.19c1.06,3.36,6.29,20.07,7.26,27.55.79,6,1.09,15,1.2,19.47,2.33-7.75,8.87-31.1,8-46.6Z" fill="#231f20"></path><path d="M201.81,81.61l2.17,11s.05,6.4-7,5.79a14.16,14.16,0,0,1-10.44-6.23l-2.88-19.3a34.84,34.84,0,0,0-.84-10.48c8.15-1.68,13.41-9.08,13.41-9.08s3.62,3.69,5.09,4.79A17.21,17.21,0,0,1,204.44,61c1.54,1.91,2,4.58,2.4,6.94a48.37,48.37,0,0,1,.75,8.49C207.5,81.86,201.81,81.61,201.81,81.61Z" fill="#fff"></path><path d="M197.86,99c-.31,0-.63,0-1,0a14.48,14.48,0,0,1-10.79-6.46.49.49,0,0,1-.06-.17L183.17,73a5.62,5.62,0,0,1,0-1,32.54,32.54,0,0,0-.86-9.47.45.45,0,0,1,.07-.34.5.5,0,0,1,.29-.2c7.87-1.62,13.08-8.82,13.13-8.89a.46.46,0,0,1,.34-.19.46.46,0,0,1,.36.13s3.61,3.68,5,4.75a17.79,17.79,0,0,1,3.24,2.93c1.63,2,2.11,4.87,2.49,7.16a47.68,47.68,0,0,1,.75,8.57,5.34,5.34,0,0,1-1.6,4,6.64,6.64,0,0,1-4.08,1.6l2.06,10.52a6.78,6.78,0,0,1-2,4.79A6.49,6.49,0,0,1,197.86,99Zm-10.92-6.9a13.8,13.8,0,0,0,10,6,6.13,6.13,0,0,0,4.84-1.3,6,6,0,0,0,1.7-4l-2.16-11a.46.46,0,0,1,.1-.39.47.47,0,0,1,.37-.16,6.12,6.12,0,0,0,4-1.37,4.48,4.48,0,0,0,1.31-3.35,46.75,46.75,0,0,0-.74-8.4c-.39-2.3-.82-4.9-2.3-6.74A16.75,16.75,0,0,0,201,58.52a64.09,64.09,0,0,1-4.77-4.46c-1.25,1.6-6,7.11-12.92,8.73a32.77,32.77,0,0,1,.78,9.26,3.76,3.76,0,0,0,0,.8C184.08,72.91,186.72,90.6,186.94,92.05Z" fill="#231f20"></path><path d="M202.78,87.06s-4.46,1-7.91-1.4a7.85,7.85,0,0,1-3.6-5.54s5.47,2.34,10.54,1.49Z" fill="#231f20"></path><path d="M200.45,87.73A10.07,10.07,0,0,1,194.61,86a8.19,8.19,0,0,1-3.78-5.88.44.44,0,0,1,.61-.42c.05,0,5.42,2.27,10.29,1.46a.43.43,0,0,1,.51.35l1,5.45a.45.45,0,0,1-.33.51A11.6,11.6,0,0,1,200.45,87.73Zm-8.62-6.92a7.93,7.93,0,0,0,3.29,4.49,10.19,10.19,0,0,0,7.15,1.4l-.82-4.59A21.76,21.76,0,0,1,191.83,80.81Z" fill="#231f20"></path><ellipse cx="201.96" cy="64.16" rx="0.62" ry="1.17" transform="translate(-9.26 47.1) rotate(-13.01)" fill="#231f20"></ellipse><ellipse cx="191.77" cy="65.2" rx="0.62" ry="1.17" transform="translate(-9.76 44.83) rotate(-13.01)" fill="#231f20"></ellipse><path d="M186.24,66.54c-1.11-1.8-3.71-2.05-5.52-1.31a3.22,3.22,0,0,0-2.13,2.89,6.28,6.28,0,0,0,.42,2.3,12.05,12.05,0,0,0,2.14,3.75,4.4,4.4,0,0,0,1.68,1.35,2.2,2.2,0,0,0,2.42-.63" fill="#fff"></path><path d="M183.58,76.12a2.55,2.55,0,0,1-.92-.18,4.82,4.82,0,0,1-1.86-1.47,12.49,12.49,0,0,1-2.22-3.9,6.27,6.27,0,0,1-.44-2.47,3.7,3.7,0,0,1,2.41-3.3c2-.82,4.86-.48,6.08,1.5a.46.46,0,0,1-.78.48c-1-1.55-3.32-1.79-5-1.13a2.76,2.76,0,0,0-1.84,2.49,5.49,5.49,0,0,0,.39,2.13,11.79,11.79,0,0,0,2.06,3.61A4,4,0,0,0,183,75.09a1.8,1.8,0,0,0,1.94-.52.46.46,0,0,1,.65,0,.45.45,0,0,1,0,.64A2.81,2.81,0,0,1,183.58,76.12Z" fill="#231f20"></path><path d="M199.54,71.64l-5.36.52s1.12,8.27,3.52,8S200.13,74,199.54,71.64Z" fill="#fff"></path><path d="M197.61,80.66c-2.6,0-3.67-7-3.87-8.44a.46.46,0,0,1,.4-.5l5.36-.52a.44.44,0,0,1,.47.33c.46,1.86.61,6.3-.74,8.19a2.05,2.05,0,0,1-1.48.93Zm-2.92-8.1c.48,3.16,1.63,7.21,2.92,7.21h0a1.17,1.17,0,0,0,.85-.56c1-1.44,1.08-5,.68-7.09Z" fill="#231f20"></path><path d="M213.78,135.11a.44.44,0,0,1-.24-.07.46.46,0,0,1-.15-.63c.06-.09,5.92-10,.31-30.51a.46.46,0,1,1,.88-.24c5.73,21-.16,30.82-.41,31.23A.47.47,0,0,1,213.78,135.11Z" fill="#231f20"></path><path d="M191,69.55a5.39,5.39,0,1,1,5.39-5.39A5.4,5.4,0,0,1,191,69.55Zm0-9.89a4.51,4.51,0,1,0,4.5,4.5A4.51,4.51,0,0,0,191,59.66Z" fill="#231f20"></path><path d="M202,68.16a5.39,5.39,0,1,1,5.39-5.39A5.4,5.4,0,0,1,202,68.16Zm0-9.89a4.5,4.5,0,1,0,4.5,4.5A4.51,4.51,0,0,0,202,58.27Z" fill="#231f20"></path><path d="M195.9,62.77s4.57,4.64,3.9,5.72-3.15.93-3.15.93" fill="#fff"></path><path d="M197,69.87h-.4a.45.45,0,0,1-.42-.47.46.46,0,0,1,.47-.42c.58,0,2.32,0,2.75-.71.18-.5-1.61-2.92-3.83-5.18a.44.44,0,1,1,.63-.62c1.8,1.83,4.7,5.07,4,6.27C199.55,69.74,197.83,69.87,197,69.87Z" fill="#231f20"></path><path d="M264.43,80.58l-.14,0A.46.46,0,0,1,264,80c1.31-4.25-.41-6.46-.48-6.55a.45.45,0,0,1,.07-.64.46.46,0,0,1,.64.06c.08.11,2.11,2.65.64,7.4A.46.46,0,0,1,264.43,80.58Z" fill="#231f20"></path><path d="M152.58,160.25l-10.49-27.73L164,117.3l-1.22-26.83c-20.59,13.23-42.82,28.81-44.94,33.35s7.77,25.2,14.87,36.43Z" fill="#FF731D"></path><path d="M145.3,130.79a.47.47,0,0,1-.37-.19A.45.45,0,0,1,145,130l27.67-19.38a.45.45,0,0,1,.63.12.44.44,0,0,1-.11.63l-27.67,19.38A.5.5,0,0,1,145.3,130.79Z" fill="#231f20"></path><path d="M264.61,132.12l2.09-4.62h13.69s2.3,5,2.3,4.83S264.61,132.12,264.61,132.12Z" fill="#fff"></path><path d="M282.65,132.8a.24.24,0,0,1-.13,0c-1.07-.1-11.2-.17-17.92-.19a.45.45,0,0,1-.41-.64l2.09-4.62a.48.48,0,0,1,.42-.27h13.69a.46.46,0,0,1,.41.27c.79,1.7,2.1,4.5,2.26,4.76a.28.28,0,0,1,.09.26.45.45,0,0,1-.36.45Zm-17.34-1.14c10.53,0,14.84.05,16.61.18-.35-.7-.9-1.88-1.83-3.88H267Z" fill="#231f20"></path><rect x="268.01" y="128.75" width="3.44" height="2.06" rx="0.69" fill="#231f20"></rect><rect x="270.54" y="149.95" width="3.05" height="9.01" fill="#fff"></rect><path d="M273.59,159.41h-3a.46.46,0,0,1-.45-.46v-9a.45.45,0,0,1,.45-.46h3a.46.46,0,0,1,.46.46v9A.47.47,0,0,1,273.59,159.41ZM271,158.5h2.13v-8.1H271Z" fill="#231f20"></path><rect x="267.18" y="158.95" width="9.77" height="5.47" fill="#fff"></rect><path d="M277,164.88h-9.77a.45.45,0,0,1-.45-.45V159a.45.45,0,0,1,.45-.45H277a.46.46,0,0,1,.46.45v5.48A.46.46,0,0,1,277,164.88Zm-9.31-.91h8.85v-4.56h-8.85Z" fill="#231f20"></path><path d="M272.07,267.47a1.5,1.5,0,0,1-1.5-1.5V166.41a1.5,1.5,0,0,1,3,0V266A1.5,1.5,0,0,1,272.07,267.47Z" fill="#231f20"></path><path d="M243.14,257.6a1.32,1.32,0,0,1-.39-.06,1.49,1.49,0,0,1-1.06-1.83l24-89.69a1.5,1.5,0,1,1,2.9.78l-24,89.68A1.51,1.51,0,0,1,243.14,257.6Z" fill="#231f20"></path><path d="M300.92,257.6a1.5,1.5,0,0,1-1.44-1.12L275.43,166.8a1.5,1.5,0,1,1,2.9-.78l24,89.69a1.49,1.49,0,0,1-1.06,1.83A1.32,1.32,0,0,1,300.92,257.6Z" fill="#231f20"></path><rect x="259.94" y="131.79" width="28.1" height="16.02" rx="1.86" fill="#fff"></rect><path d="M286.17,148.27H261.8a2.32,2.32,0,0,1-2.32-2.31V133.65a2.32,2.32,0,0,1,2.32-2.31h24.37a2.32,2.32,0,0,1,2.32,2.31V146A2.32,2.32,0,0,1,286.17,148.27Zm-24.37-16a1.41,1.41,0,0,0-1.41,1.4V146a1.41,1.41,0,0,0,1.41,1.4h24.37a1.41,1.41,0,0,0,1.41-1.4V133.65a1.41,1.41,0,0,0-1.41-1.4Z" fill="#231f20"></path><rect x="262.24" y="133.62" width="15.78" height="12.18" fill="#fff"></rect><path d="M278,146.26H262.24a.46.46,0,0,1-.45-.46V133.62a.46.46,0,0,1,.45-.46H278a.46.46,0,0,1,.46.46V145.8A.46.46,0,0,1,278,146.26Zm-15.32-.91h14.87V134.08H262.7Z" fill="#231f20"></path><circle cx="283.06" cy="143.95" r="2.07" fill="#fff"></circle><path d="M283.06,146.47a2.52,2.52,0,1,1,2.52-2.52A2.52,2.52,0,0,1,283.06,146.47Zm0-4.13a1.61,1.61,0,1,0,1.61,1.61A1.61,1.61,0,0,0,283.06,142.34Z" fill="#231f20"></path><circle cx="283.06" cy="138.92" r="1.46" fill="#231f20"></circle><circle cx="283.06" cy="134.85" r="1.46" fill="#231f20"></circle><rect x="267.13" y="147.82" width="9.88" height="2.5" fill="#fff"></rect><path d="M277,150.77h-9.87a.47.47,0,0,1-.46-.46v-2.49a.46.46,0,0,1,.46-.46H277a.45.45,0,0,1,.46.46v2.49A.46.46,0,0,1,277,150.77Zm-9.41-.92h9v-1.58h-9Z" fill="#231f20"></path><rect x="264.08" y="164.43" width="15.97" height="3.97" fill="#fff"></rect><path d="M280.05,168.85h-16a.46.46,0,0,1-.46-.45v-4a.46.46,0,0,1,.46-.46h16a.45.45,0,0,1,.46.46v4A.45.45,0,0,1,280.05,168.85Zm-15.51-.91H279.6v-3.06H264.54Z" fill="#231f20"></path><path d="M83,186.72a7.61,7.61,0,0,0-.86-4.07c-.54-.9-1.38-1.62-1.83-2.57-.77-1.66-.22-3.6-.41-5.41a6.73,6.73,0,0,0-1.9-4c-1-1-2.17-1.62-3.08-2.62-1.48-1.64-1.91-3.95-2.76-6a14.9,14.9,0,0,0-5.94-7c1.63,3.26-2.07,7.4-.39,10.63.53,1,1.54,1.78,1.93,2.86.94,2.63-2.19,5.47-1.19,8.07.5,1.3,1.89,2,2.54,3.28.87,1.66.18,3.68.26,5.55.09,2.59,1.67,4.9,3.54,6.69,1.16,1.12,2.46,2.08,3.72,3.09,1.5,1.21,2.14,2.47,3.46.54A16.64,16.64,0,0,0,83,186.72Z" fill="#231f20"></path><path d="M84.71,188.2c-.48-2-.82-4.17,0-6.06.92-2.13,3.22-3.64,3.49-6,.18-1.51-.59-3-.29-4.54s1.53-2.51,2.53-3.61a15.13,15.13,0,0,0,3.91-9.25,23.07,23.07,0,0,1,3.72,6.15,7.9,7.9,0,0,1-.54,6.94,6,6,0,0,0-.94,1.54c-.46,1.48.8,2.85,1.45,4.25a4.88,4.88,0,0,1-.46,5c-1.32,1.64-3.87,2.29-4.52,4.3a10.76,10.76,0,0,0-.23,2.28A6.7,6.7,0,0,1,88,195c-1.57.38-1.54-.24-1.82-1.56C85.82,191.67,85.14,190,84.71,188.2Z" fill="#231f20"></path><path d="M79.73,173.81C78.62,170,78.18,166,77,162.12a66.34,66.34,0,0,0-3.64-8.72l4.77,2c1.53.65,3.18,1.41,3.9,2.9,1.26,2.61-1,5.94.32,8.51a22.42,22.42,0,0,0,1.89,2.38c1.4,2,1.19,4.68.42,7-.33,1-1.78,6.09-3.07,4.67-.52-.56-.56-2.68-.78-3.45C80.49,176.18,80.08,175,79.73,173.81Z" fill="#231f20"></path><path d="M82.25,224.9c-1-6.28-3.92-28.43-4-28.66l1-.13c0,.22,3,22.36,3.95,28.64Z" fill="#231f20"></path><path d="M83.55,230.82h-1c0-7.47,3.18-36,5-38l.74.67C86.9,195,83.61,222.56,83.55,230.82Z" fill="#231f20"></path><path d="M85.16,229.4l-1,0c.71-16.08-2.71-49.86-2.74-50.2l1-.1C82.46,179.4,85.88,213.25,85.16,229.4Z" fill="#231f20"></path><path d="M74.17,206.88H91.92L90.68,227c-.21,3.49-2.8,6.2-5.92,6.2H81.33c-3.12,0-5.7-2.71-5.92-6.2Z" fill="#fff"></path><path d="M84.76,233.75H81.33c-3.38,0-6.2-2.93-6.43-6.68l-1.24-20.16a.51.51,0,0,1,.51-.55H91.92a.5.5,0,0,1,.38.17.49.49,0,0,1,.14.38L91.2,227.07C91,230.82,88.14,233.75,84.76,233.75Zm-10-26.35L75.93,227c.2,3.2,2.57,5.71,5.4,5.71h3.43c2.84,0,5.21-2.51,5.41-5.71l1.2-19.61Z" fill="#231f20"></path></g></svg>